<svg data-v-2ad30200="" version="1.0" xmlns="http://www.w3.org/2000/svg" xmlns:xlink="http://www.w3.org/1999/xlink" width="100%" height="100%" viewBox="0 0 340.000000 250.000000" preserveAspectRatio="xMidYMid meet" color-interpolation-filters="sRGB" class="el-tooltip" style="margin: auto;"><rect data-v-2ad30200="" x="0" y="0" width="100%" height="100%" fill="#2c3e50" fill-opacity="1"></rect> <rect data-v-2ad30200="" x="0" y="0" width="100%" height="100%" fill="url(#watermark)" fill-opacity="1" class="watermarklayer"></rect> <g data-v-2ad30200="" fill="#fff" class="icon-svg-group iconsvg" transform="translate(77.75296020507812,95)"><g class="iconsvg-imagesvg" transform="translate(0,0)"><rect fill="#fff" fill-opacity="0" stroke-width="2" x="0" y="0" width="52.131414607657" height="60"></rect> <svg filter="url(#colors7356027063)" x="0" y="0" width="52.131414607657" height="60" class="imagesvg-svg"><svg xmlns="http://www.w3.org/2000/svg" viewBox="0 0 60.9 70.1"><path d="M4.5 32.3c0-4.8 3.9-8.7 8.7-8.7 6.9 0 14.1 8.7 14.1 8.7m-22.8 0c0 4.8 3.9 8.7 8.7 8.7 6.9 0 14.1-8.7 14.1-8.7L34 39m0 0s7.2 8.7 14.1 8.7c4.8 0 8.7-3.9 8.7-8.7m-.1 0c0-4.8-3.9-8.7-8.7-8.7-6.8.1-14 8.7-14 8.7m0 0l-7.5 7.5c-5.8 5.8-13.7 9.1-22 9.1h-.3l2.4 2.7c12.9 12.9 33.8 12.9 46.7 0m-26.1-26l7.5-7.5c5.8-5.8 13.7-9.1 22-9.1 0 0-2.2-2.7-3.4-4-12.9-12.9-33.8-12.9-46.7 0" fill="none" stroke="#333" stroke-width="4" stroke-miterlimit="10"></path></svg></svg> <defs><filter id="colors7356027063"><feColorMatrix type="matrix" values="0 0 0 0 0.99609375  0 0 0 0 0.99609375  0 0 0 0 0.99609375  0 0 0 1 0"></feColorMatrix></filter></defs></g> <g transform="translate(59.13141632080078,1.9250011444091797)"><g class="tp-name iconsvg-namesvg" transform="translate(8.787727355957031,0)"><g><path transform="translate(-3.64,32.04)" d="M7.92 3.84L7.92 4.40L7.92 4.40Q7.92 5.32 7.26 5.76L7.26 5.76L7.26 5.76Q6.60 6.20 5.78 6.20L5.78 6.20L5.78 6.20Q4.96 6.20 4.30 5.76L4.30 5.76L4.30 5.76Q3.64 5.32 3.64 4.40L3.64 4.40L3.64-30.56L3.64-30.56Q4.44-30.12 5.42-29.88L5.42-29.88L5.42-29.88Q6.40-29.64 7.36-29.52L7.36-29.52L7.36-29.52Q8.08-29.44 8.40-29.26L8.40-29.26L8.40-29.26Q8.72-29.08 8.78-28.84L8.78-28.84L8.78-28.84Q8.84-28.60 8.70-28.34L8.70-28.34L8.70-28.34Q8.56-28.08 8.40-27.84L8.40-27.84L19.12-27.84L19.12-27.84Q19.36-28.40 20.04-28.86L20.04-28.86L20.04-28.86Q20.72-29.32 21.54-29.38L21.54-29.38L21.54-29.38Q22.36-29.44 23.12-28.90L23.12-28.90L23.12-28.90Q23.88-28.36 24.24-26.92L24.24-26.92L24.24-26.92Q24.40-26.36 24.28-25.94L24.28-25.94L24.28-25.94Q24.16-25.52 23.72-25.44L23.72-25.44L23.72-25.44Q23.56-25.40 23.42-25.26L23.42-25.26L23.42-25.26Q23.28-25.12 23.28-24.84L23.28-24.84L23.28 4.40L23.28 4.40Q23.28 5.32 22.62 5.80L22.62 5.80L22.62 5.80Q21.96 6.28 21.14 6.28L21.14 6.28L21.14 6.28Q20.32 6.28 19.66 5.82L19.66 5.82L19.66 5.82Q19 5.36 19 4.40L19 4.40L19 3.84L7.92 3.84ZM7.92-11.84L7.92 2.28L19 2.28L19-11.84L7.92-11.84ZM7.92-26.24L7.92-13.44L19-13.44L19-26.24L7.92-26.24ZM51.88-14.64L51.88-11.04L51.88-11.04Q51.88-7.12 51.08-4.10L51.08-4.10L51.08-4.10Q50.28-1.08 48.56 1.16L48.56 1.16L48.56 1.16Q51.32 2.56 55.56 2.84L55.56 2.84L55.56 2.84Q55.08 2.96 54.62 3.42L54.62 3.42L54.62 3.42Q54.16 3.88 53.80 4.52L53.80 4.52L53.80 4.52Q53.44 5.16 53.24 5.90L53.24 5.90L53.24 5.90Q53.04 6.64 53.04 7.28L53.04 7.28L53.04 7.28Q50.80 6.76 49.08 5.86L49.08 5.86L49.08 5.86Q47.36 4.96 46.04 3.72L46.04 3.72L46.04 3.72Q42.52 6.40 36.36 7.44L36.36 7.44L36.36 7.44Q39.16 6.48 41.16 5.16L41.16 5.16L41.16 5.16Q43.16 3.84 44.56 2.08L44.56 2.08L44.56 2.08Q43.52 0.72 42.80-0.84L42.80-0.84L42.80-0.84Q42.08-2.40 41.62-4.10L41.62-4.10L41.62-4.10Q41.16-5.80 40.94-7.58L40.94-7.58L40.94-7.58Q40.72-9.36 40.68-11.16L40.68-11.16L40.68-11.16Q38.76-8.64 37.08-7.32L37.08-7.32L37.08-7.32Q37.88-8.88 38.60-10.80L38.60-10.80L38.60-10.80Q39.32-12.72 39.88-14.80L39.88-14.80L39.88-14.80Q40.44-16.88 40.82-19L40.82-19L40.82-19Q41.20-21.12 41.36-23.12L41.36-23.12L41.36-23.12Q42.64-22.40 43.82-21.92L43.82-21.92L43.82-21.92Q45-21.44 46.08-21.08L46.08-21.08L46.08-21.08Q46.52-20.92 46.70-20.68L46.70-20.68L46.70-20.68Q46.88-20.44 46.86-20.20L46.86-20.20L46.86-20.20Q46.84-19.96 46.70-19.74L46.70-19.74L46.70-19.74Q46.56-19.52 46.36-19.44L46.36-19.44L45.24-18.84L45.24-18.84Q45.16-18.80 45.02-18.64L45.02-18.64L45.02-18.64Q44.88-18.48 44.84-18.36L44.84-18.36L44.84-18.36Q44.76-18.20 44.70-18.06L44.70-18.06L44.70-18.06Q44.64-17.92 44.56-17.76L44.56-17.76L47.84-17.76L47.84-17.76Q48.12-18.28 48.80-18.72L48.80-18.72L48.80-18.72Q49.48-19.16 50.26-19.20L50.26-19.20L50.26-19.20Q51.04-19.24 51.78-18.70L51.78-18.70L51.78-18.70Q52.52-18.16 52.88-16.72L52.88-16.72L52.88-16.72Q53-16.20 52.92-15.78L52.92-15.78L52.92-15.78Q52.84-15.36 52.36-15.28L52.36-15.28L52.36-15.28Q52.16-15.24 52.02-15.08L52.02-15.08L52.02-15.08Q51.88-14.92 51.88-14.64L51.88-14.64ZM36.28-9.72L36.28 6.04L36.28 6.04Q36.28 6.84 35.62 7.22L35.62 7.22L35.62 7.22Q34.96 7.60 34.16 7.60L34.16 7.60L34.16 7.60Q33.36 7.60 32.70 7.20L32.70 7.20L32.70 7.20Q32.04 6.80 32.04 6.04L32.04 6.04L32.04-10.40L32.04-10.40Q31.20-9.36 30.38-8.56L30.38-8.56L30.38-8.56Q29.56-7.76 28.84-7.20L28.84-7.20L28.84-7.20Q29.52-8.32 30.22-10.20L30.22-10.20L30.22-10.20Q30.92-12.08 31.50-14.30L31.50-14.30L31.50-14.30Q32.08-16.52 32.52-18.82L32.52-18.82L32.52-18.82Q32.96-21.12 33.16-23.12L33.16-23.12L33.16-23.12Q34.20-22.44 35.48-21.82L35.48-21.82L35.48-21.82Q36.76-21.20 37.84-20.84L37.84-20.84L37.84-20.84Q38.28-20.68 38.46-20.44L38.46-20.44L38.46-20.44Q38.64-20.20 38.64-19.96L38.64-19.96L38.64-19.96Q38.64-19.72 38.48-19.50L38.48-19.50L38.48-19.50Q38.32-19.28 38.12-19.20L38.12-19.20L37.04-18.60L37.04-18.60Q36.96-18.56 36.80-18.40L36.80-18.40L36.80-18.40Q36.64-18.24 36.60-18.12L36.60-18.12L36.60-18.12Q36.16-17 35.60-15.94L35.60-15.94L35.60-15.94Q35.04-14.88 34.48-13.88L34.48-13.88L34.48-13.88Q35.56-13.44 37.08-13.04L37.08-13.04L37.08-13.04Q37.56-12.92 37.78-12.66L37.78-12.66L37.78-12.66Q38-12.40 38.02-12.10L38.02-12.10L38.02-12.10Q38.04-11.80 37.88-11.50L37.88-11.50L37.88-11.50Q37.72-11.20 37.48-11L37.48-11L36.52-10.24L36.52-10.24Q36.28-10.04 36.28-9.72L36.28-9.72ZM29.28-24.36L28.40-25.96L39.48-25.96L39.48-31.84L39.48-31.84Q40.28-31.16 41.40-30.58L41.40-30.58L41.40-30.58Q42.52-30 44.52-29.48L44.52-29.48L44.52-29.48Q45-29.36 45.22-29.10L45.22-29.10L45.22-29.10Q45.44-28.84 45.44-28.54L45.44-28.54L45.44-28.54Q45.44-28.24 45.30-27.94L45.30-27.94L45.30-27.94Q45.16-27.64 44.92-27.44L44.92-27.44L43.96-26.68L43.96-26.68Q43.76-26.56 43.76-26.16L43.76-26.16L43.76-25.96L48.92-25.96L48.92-25.96Q49.08-27.12 49.84-27.70L49.84-27.70L49.84-27.70Q50.60-28.28 51.64-28.28L51.64-28.28L51.64-28.28Q53.04-28.28 53.70-27.26L53.70-27.26L53.70-27.26Q54.36-26.24 54.24-24.36L54.24-24.36L29.28-24.36ZM41.80-12.76L41.80-12.76L41.80-12.76Q41.84-11 42.04-9.28L42.04-9.28L42.04-9.28Q42.24-7.56 42.72-5.98L42.72-5.98L42.72-5.98Q43.20-4.40 44.02-3L44.02-3L44.02-3Q44.84-1.60 46.08-0.48L46.08-0.48L46.08-0.48Q47.68-3.96 47.68-8.88L47.68-8.88L47.68-16.16L43.80-16.16L43.80-16.16Q42.80-14.32 41.80-12.76ZM45.56-7.60L45.56-7.60L45.56-7.60Q44.88-7.56 44.38-8.14L44.38-8.14L44.38-8.14Q43.88-8.72 43.68-9.56L43.68-9.56L43.68-9.56Q43.48-10.52 43.18-11.38L43.18-11.38L43.18-11.38Q42.88-12.24 42.44-12.60L42.44-12.60L42.44-12.60Q44.12-12.32 45.36-11.70L45.36-11.70L45.36-11.70Q46.60-11.08 46.92-10.24L46.92-10.24L46.92-10.24Q47.32-9.16 46.86-8.38L46.86-8.38L46.86-8.38Q46.40-7.60 45.56-7.60ZM65.52-28.08L64.68-29.68L77.84-29.68L77.84-29.68Q78.16-30.20 78.86-30.62L78.86-30.62L78.86-30.62Q79.56-31.04 80.34-31.04L80.34-31.04L80.34-31.04Q81.12-31.04 81.82-30.50L81.82-30.50L81.82-30.50Q82.52-29.96 82.88-28.56L82.88-28.56L82.88-28.56Q83-28 82.90-27.58L82.90-27.58L82.90-27.58Q82.80-27.16 82.36-27.08L82.36-27.08L82.36-27.08Q81.92-27 81.92-26.48L81.92-26.48L81.92 5.28L81.92 5.28Q81.92 6.16 81.28 6.64L81.28 6.64L81.28 6.64Q80.64 7.12 79.84 7.14L79.84 7.14L79.84 7.14Q79.04 7.16 78.36 6.74L78.36 6.74L78.36 6.74Q77.68 6.32 77.64 5.44L77.64 5.44L74.96 5.44L74.12 3.88L77.64 3.88L77.64-28.08L65.52-28.08ZM62.48-20.68L62.48 5.56L62.48 5.56Q62.48 6.44 61.82 6.86L61.82 6.86L61.82 6.86Q61.16 7.28 60.34 7.28L60.34 7.28L60.34 7.28Q59.52 7.28 58.86 6.84L58.86 6.84L58.86 6.84Q58.20 6.40 58.20 5.56L58.20 5.56L58.20-24.24L58.20-24.24Q59.04-23.84 60-23.58L60-23.58L60-23.58Q60.96-23.32 61.92-23.12L61.92-23.12L61.92-23.12Q63.12-22.88 63.36-22.48L63.36-22.48L63.36-22.48Q63.60-22.08 63.40-21.72L63.40-21.72L63.40-21.72Q63.20-21.36 62.84-21.06L62.84-21.06L62.84-21.06Q62.48-20.76 62.48-20.68L62.48-20.68ZM76.12-14.72L76.12-11.16L76.12-11.16Q76.12-10.44 75.60-10.02L75.60-10.02L75.60-10.02Q75.08-9.60 74.40-9.52L74.40-9.52L74.40-9.52Q73.72-9.44 73.06-9.68L73.06-9.68L73.06-9.68Q72.40-9.92 72.12-10.48L72.12-10.48L67.92-10.48L67.92-10.48Q67.64-9.92 66.98-9.68L66.98-9.68L66.98-9.68Q66.32-9.44 65.66-9.54L65.66-9.54L65.66-9.54Q65-9.64 64.50-10.06L64.50-10.06L64.50-10.06Q64-10.48 64-11.20L64-11.20L64-19.88L64-19.88Q64.80-19.44 65.72-19.20L65.72-19.20L65.72-19.20Q66.64-18.96 67.60-18.84L67.60-18.84L67.60-18.84Q68.60-18.72 68.84-18.46L68.84-18.46L68.84-18.46Q69.08-18.20 68.96-17.88L68.96-17.88L72.12-17.88L72.12-17.88Q72.40-18.40 73.08-18.84L73.08-18.84L73.08-18.84Q73.76-19.28 74.54-19.30L74.54-19.30L74.54-19.30Q75.32-19.32 76.02-18.76L76.02-18.76L76.02-18.76Q76.72-18.20 77.08-16.80L77.08-16.80L77.08-16.80Q77.20-16.28 77.12-15.86L77.12-15.86L77.12-15.86Q77.04-15.44 76.60-15.36L76.60-15.36L76.60-15.36Q76.12-15.28 76.12-14.72L76.12-14.72ZM74.20-5.48L74.20-0.92L74.20-0.92Q74.20-0.24 74.84-0.24L74.84-0.24L75.44-0.24L75.44-0.24Q75.68-0.24 75.68-0.44L75.68-0.44L76.04-4.28L76.60-0.40L76.60-0.40Q76.64-0.24 76.88-0.24L76.88-0.24L76.88-0.24Q77.28-0.24 77.44 0.26L77.44 0.26L77.44 0.26Q77.60 0.76 77.48 1.38L77.48 1.38L77.48 1.38Q77.36 2 76.96 2.50L76.96 2.50L76.96 2.50Q76.56 3 75.88 3L75.88 3L73.28 3L73.28 3Q72 3 71.30 2.18L71.30 2.18L71.30 2.18Q70.60 1.36 70.60 0.04L70.60 0.04L70.60-9.12L70.60-9.12Q71.36-8.72 72.22-8.44L72.22-8.44L72.22-8.44Q73.08-8.16 74.48-7.96L74.48-7.96L74.48-7.96Q74.84-7.88 75-7.70L75-7.70L75-7.70Q75.16-7.52 75.20-7.28L75.20-7.28L75.20-7.28Q75.24-7.04 75.14-6.80L75.14-6.80L75.14-6.80Q75.04-6.56 74.88-6.40L74.88-6.40L74.40-5.88L74.40-5.88Q74.32-5.80 74.26-5.72L74.26-5.72L74.26-5.72Q74.20-5.64 74.20-5.48L74.20-5.48ZM68.92-5.48L68.92-4.60L68.92-4.60Q68.92-1.36 67.40 0.70L67.40 0.70L67.40 0.70Q65.88 2.76 62.72 4.16L62.72 4.16L62.72 4.16Q63.44 3.56 63.94 2.62L63.94 2.62L63.94 2.62Q64.44 1.68 64.74 0.52L64.74 0.52L64.74 0.52Q65.04-0.64 65.16-1.88L65.16-1.88L65.16-1.88Q65.28-3.12 65.28-4.32L65.28-4.32L65.28-9.12L65.28-9.12Q66.08-8.72 66.92-8.44L66.92-8.44L66.92-8.44Q67.76-8.16 69.20-7.96L69.20-7.96L69.20-7.96Q69.88-7.84 69.90-7.28L69.90-7.28L69.90-7.28Q69.92-6.72 69.60-6.40L69.60-6.40L69.12-5.88L69.12-5.88Q69.04-5.80 68.98-5.72L68.98-5.72L68.98-5.72Q68.92-5.64 68.92-5.48L68.92-5.48ZM62.68-29.04L62.68-29.04L62.68-29.04Q63.32-27.88 63-26.92L63-26.92L63-26.92Q62.68-25.96 61.94-25.60L61.94-25.60L61.94-25.60Q61.20-25.24 60.34-25.66L60.34-25.66L60.34-25.66Q59.48-26.08 59.04-27.68L59.04-27.68L59.04-27.68Q58.60-29.08 58.24-30.04L58.24-30.04L58.24-30.04Q57.88-31 57-31.48L57-31.48L57-31.48Q59-31.36 60.48-30.84L60.48-30.84L60.48-30.84Q61.96-30.32 62.68-29.04ZM75.32-22.56L75.32-22.56L75.32-22.56Q74.92-22.12 74.34-21.64L74.34-21.64L74.34-21.64Q73.76-21.16 73.06-20.68L73.06-20.68L73.06-20.68Q72.36-20.20 71.64-19.80L71.64-19.80L71.64-19.80Q70.92-19.40 70.28-19.16L70.28-19.16L70.28-19.16Q70.68-19.68 71.10-20.64L71.10-20.64L71.10-20.64Q71.52-21.60 71.88-22.66L71.88-22.66L71.88-22.66Q72.24-23.72 72.48-24.74L72.48-24.74L72.48-24.74Q72.72-25.76 72.80-26.44L72.80-26.44L72.80-26.44Q73.36-25.84 74.36-25.26L74.36-25.26L74.36-25.26Q75.36-24.68 76.24-24.36L76.24-24.36L76.24-24.36Q76.84-24.24 76.82-23.80L76.82-23.80L76.82-23.80Q76.80-23.36 76.36-23.16L76.36-23.16L75.76-22.92L75.76-22.92Q75.60-22.84 75.50-22.74L75.50-22.74L75.50-22.74Q75.40-22.64 75.32-22.56ZM69.60-22.72L69.60-22.72L69.60-22.72Q69.76-21.76 69.22-21.14L69.22-21.14L69.22-21.14Q68.68-20.52 67.94-20.40L67.94-20.40L67.94-20.40Q67.20-20.28 66.50-20.72L66.50-20.72L66.50-20.72Q65.80-21.16 65.64-22.32L65.64-22.32L65.64-22.32Q65.60-22.64 65.58-23.04L65.58-23.04L65.58-23.04Q65.56-23.44 65.44-23.86L65.44-23.86L65.44-23.86Q65.32-24.28 65.02-24.70L65.02-24.70L65.02-24.70Q64.72-25.12 64.16-25.52L64.16-25.52L64.16-25.52Q65.16-25.44 66.08-25.26L66.08-25.26L66.08-25.26Q67-25.08 67.76-24.74L67.76-24.74L67.76-24.74Q68.52-24.40 69-23.92L69-23.92L69-23.92Q69.48-23.44 69.60-22.72ZM68.12-16.28L68.12-12.08L71.96-12.08L71.96-16.28L68.12-16.28ZM110.24 3.08L110.24 3.08L110.24 3.08Q111.12 4.60 110.94 5.72L110.94 5.72L110.94 5.72Q110.76 6.84 110.08 7.20L110.08 7.20L110.08 7.20Q109.40 7.56 108.46 6.96L108.46 6.96L108.46 6.96Q107.52 6.36 106.84 4.44L106.84 4.44L106.84 4.44Q106.28 2.92 105.26 1.34L105.26 1.34L105.26 1.34Q104.24-0.24 102.96-1.16L102.96-1.16L102.92-1.16L102.92-1.16Q101.96 0.52 100.54 1.92L100.54 1.92L100.54 1.92Q99.12 3.32 97.48 4.44L97.48 4.44L97.48 4.44Q95.84 5.56 94.02 6.36L94.02 6.36L94.02 6.36Q92.20 7.16 90.40 7.64L90.40 7.64L90.40 7.64Q91.60 7 93.04 5.90L93.04 5.90L93.04 5.90Q94.48 4.80 95.82 3.36L95.82 3.36L95.82 3.36Q97.16 1.92 98.28 0.18L98.28 0.18L98.28 0.18Q99.40-1.56 100-3.56L100-3.56L94.24-3.56L93.40-5.16L100.36-5.16L100.36-5.16Q100.44-5.60 100.48-6.06L100.48-6.06L100.48-6.06Q100.52-6.52 100.52-6.96L100.52-6.96L100.52-18.60L100.52-18.60Q100.96-18.32 101.38-18.12L101.38-18.12L101.38-18.12Q101.80-17.92 102.30-17.72L102.30-17.72L102.30-17.72Q102.80-17.52 103.42-17.34L103.42-17.34L103.42-17.34Q104.04-17.16 104.92-16.92L104.92-16.92L104.92-16.92Q105.80-16.72 105.72-16.24L105.72-16.24L105.72-16.24Q105.64-15.76 105.28-15.36L105.28-15.36L104.92-14.96L104.92-14.96Q104.84-14.88 104.76-14.78L104.76-14.78L104.76-14.78Q104.68-14.68 104.68-14.48L104.68-14.48L104.68-7.56L104.68-7.56Q104.68-6.28 104.44-5.16L104.44-5.16L106.32-5.16L106.32-5.16Q106.48-6.20 107.30-6.78L107.30-6.78L107.30-6.78Q108.12-7.36 108.98-7.28L108.98-7.28L108.98-7.28Q109.84-7.20 110.50-6.32L110.50-6.32L110.50-6.32Q111.16-5.44 111.04-3.56L111.04-3.56L104-3.56L104-3.56Q103.76-2.72 103.40-2.04L103.40-2.04L103.40-2.04Q106.12-1 107.78 0.36L107.78 0.36L107.78 0.36Q109.44 1.72 110.24 3.08ZM90.64 4.56L90.64 4.56L90.64 4.56Q90.56 4.64 90.38 4.92L90.38 4.92L90.38 4.92Q90.20 5.20 90.16 5.40L90.16 5.40L89.92 6.16L89.92 6.16Q89.68 6.84 89.12 6.84L89.12 6.84L89.12 6.84Q88.56 6.84 88.28 6.16L88.28 6.16L88.28 6.16Q88.12 5.80 87.86 5.24L87.86 5.24L87.86 5.24Q87.60 4.68 87.30 4.10L87.30 4.10L87.30 4.10Q87 3.52 86.74 3.04L86.74 3.04L86.74 3.04Q86.48 2.56 86.32 2.40L86.32 2.40L86.32 2.40Q86.88 2.24 87.80 1.92L87.80 1.92L87.80-17.92L85.32-17.92L84.60-19.52L87.96-19.52L87.96-19.52Q88.24-20.04 88.92-20.48L88.92-20.48L88.92-20.48Q89.60-20.92 90.38-20.94L90.38-20.94L90.38-20.94Q91.16-20.96 91.86-20.40L91.86-20.40L91.86-20.40Q92.56-19.84 92.92-18.44L92.92-18.44L92.92-18.44Q93.04-17.88 92.96-17.48L92.96-17.48L92.96-17.48Q92.88-17.08 92.44-17L92.44-17L92.44-17Q91.96-16.88 91.96-16.36L91.96-16.36L91.96 0.32L91.96 0.32Q92.76 0 93.52-0.36L93.52-0.36L93.52-0.36Q94.28-0.72 94.96-1.04L94.96-1.04L94.96-1.04Q93.92 0.76 92.86 2.08L92.86 2.08L92.86 2.08Q91.80 3.40 90.64 4.56ZM110.32-19.04L110.32-19.04L110.32-19.04Q109.56-17.64 108.72-16.40L108.72-16.40L108.72-16.40Q107.88-15.16 106.60-14.20L106.60-14.20L106.60-14.20Q106.84-15.28 107-16.58L107-16.58L107-16.58Q107.16-17.88 107.24-19.16L107.24-19.16L94.68-19.16L93.84-20.76L99.68-20.76L99.68-24.92L95.04-24.92L94.16-26.48L99.68-26.48L99.68-32.04L99.68-32.04Q100.12-31.76 100.54-31.60L100.54-31.60L100.54-31.60Q100.96-31.44 101.46-31.32L101.46-31.32L101.46-31.32Q101.96-31.20 102.60-31.08L102.60-31.08L102.60-31.08Q103.24-30.96 104.12-30.72L104.12-30.72L104.12-30.72Q104.56-30.60 104.74-30.40L104.74-30.40L104.74-30.40Q104.92-30.20 104.92-29.94L104.92-29.94L104.92-29.94Q104.92-29.68 104.78-29.40L104.78-29.40L104.78-29.40Q104.64-29.12 104.48-28.92L104.48-28.92L104.12-28.52L104.12-28.52Q103.92-28.32 103.92-28.04L103.92-28.04L103.92-26.48L106.20-26.48L106.20-26.48Q106.36-27.40 107.12-27.94L107.12-27.94L107.12-27.94Q107.88-28.48 108.70-28.40L108.70-28.40L108.70-28.40Q109.52-28.32 110.12-27.50L110.12-27.50L110.12-27.50Q110.72-26.68 110.60-24.92L110.60-24.92L103.92-24.92L103.92-20.76L107.32-20.76L107.32-22.60L107.32-22.60Q107.88-22.24 108.84-21.90L108.84-21.90L108.84-21.90Q109.80-21.56 110.80-21.32L110.80-21.32L110.80-21.32Q111.36-21.16 111.42-20.64L111.42-20.64L111.42-20.64Q111.48-20.12 111.04-19.80L111.04-19.80L111.04-19.80Q110.48-19.28 110.32-19.04ZM92.32-26.48L92.32-26.48L92.32-26.48Q92.40-25.44 91.82-24.74L91.82-24.74L91.82-24.74Q91.24-24.04 90.50-23.90L90.50-23.90L90.50-23.90Q89.76-23.76 89.06-24.28L89.06-24.28L89.06-24.28Q88.36-24.80 88.16-26.24L88.16-26.24L88.16-26.24Q87.96-27.76 87.54-29.16L87.54-29.16L87.54-29.16Q87.12-30.56 86.32-31.44L86.32-31.44L86.32-31.44Q89.08-30.80 90.66-29.54L90.66-29.54L90.66-29.54Q92.24-28.28 92.32-26.48ZM98.40-10.16L98.40-10.16L98.40-10.16Q99.08-9.08 98.86-8.18L98.86-8.18L98.86-8.18Q98.64-7.28 98.02-6.90L98.02-6.90L98.02-6.90Q97.40-6.52 96.64-6.82L96.64-6.82L96.64-6.82Q95.88-7.12 95.52-8.40L95.52-8.40L95.52-8.40Q95.20-9.64 94.70-10.70L94.70-10.70L94.70-10.70Q94.20-11.76 93.32-12.72L93.32-12.72L93.32-12.72Q95-12.40 96.36-11.80L96.36-11.80L96.36-11.80Q97.72-11.20 98.40-10.16ZM99.12-15.56L99.12-15.56L99.12-15.56Q99.84-14.64 99.72-13.80L99.72-13.80L99.72-13.80Q99.60-12.96 99.06-12.54L99.06-12.54L99.06-12.54Q98.52-12.12 97.80-12.32L97.80-12.32L97.80-12.32Q97.08-12.52 96.64-13.68L96.64-13.68L96.64-13.68Q96.20-14.84 95.62-15.84L95.62-15.84L95.62-15.84Q95.04-16.84 94.08-17.68L94.08-17.68L94.08-17.68Q95.56-17.56 96.98-17L96.98-17L96.98-17Q98.40-16.44 99.12-15.56Z"></path></g> <!----></g> <g class="tp-slogan iconsvg-slogansvg" transform="translate(0,39.040000915527344)"><!----> <!----> <!----> <g><rect stroke-width="2" x="0" y="0" width="125.36266326904297" height="17.109999656677246"></rect> <!----> <!----> <g transform="translate(5,3)"><g fill="#2c3e50"><path transform="translate(-0.9375,8.578125)" d="M4.41 0L0.94 0L0.94-8.58L4.45-8.58L4.45-8.58Q7.92-8.39 8.06-4.41L8.06-4.41L8.06-4.41Q7.88-0.09 4.41 0L4.41 0ZM4.27-7.64L2.11-7.64L2.11-0.98L4.36-0.98L4.36-0.98Q6.80-1.13 6.89-4.31L6.89-4.31L6.89-4.31Q6.84-7.55 4.27-7.64L4.27-7.64ZM10.36-4.36L10.36-4.36L9.38-4.36L9.38-4.36Q9.42-6.47 11.95-6.47L11.95-6.47L11.95-6.47Q14.20-6.38 14.25-4.69L14.25-4.69L14.25-1.08L14.25-1.08Q14.25-0.70 14.63-0.70L14.63-0.70L14.63-0.70Q14.67-0.70 14.77-0.70L14.77-0.70L14.77-0.70Q14.91-0.75 15-0.75L15-0.75L15 0L15 0Q14.91 0 14.77 0L14.77 0L14.77 0Q14.53 0.05 14.39 0.05L14.39 0.05L14.39 0.05Q13.27 0.05 13.31-0.84L13.31-0.84L13.31-0.84Q12.38 0.09 11.02 0.09L11.02 0.09L11.02 0.09Q9.14 0 9.05-1.64L9.05-1.64L9.05-1.64Q9.09-3.33 10.97-3.61L10.97-3.61L12.70-3.80L12.70-3.80Q13.27-3.89 13.27-4.55L13.27-4.55L13.27-4.55Q13.27-5.58 11.77-5.58L11.77-5.58L11.77-5.58Q10.45-5.58 10.36-4.36ZM13.22-2.16L13.22-2.16L13.22-3.19L13.22-3.19Q12.84-2.95 11.48-2.77L11.48-2.77L11.48-2.77Q10.17-2.67 10.17-1.78L10.17-1.78L10.17-1.78Q10.17-0.70 11.25-0.70L11.25-0.70L11.25-0.70Q13.08-0.84 13.22-2.16ZM18.28-1.13L18.33-1.13L19.97-6.28L21.14-6.28L21.14-6.28Q20.91-5.67 20.48-4.45L20.48-4.45L20.48-4.45Q19.45-1.59 18.89-0.14L18.89-0.14L18.89-0.14Q18.09 1.83 17.77 2.06L17.77 2.06L17.77 2.06Q17.44 2.48 16.41 2.44L16.41 2.44L16.41 2.44Q16.22 2.44 15.98 2.34L15.98 2.34L15.98 1.41L15.98 1.41Q16.03 1.41 16.08 1.45L16.08 1.45L16.08 1.45Q16.36 1.55 16.59 1.55L16.59 1.55L16.59 1.55Q17.20 1.78 17.72 0.09L17.72 0.09L15.42-6.28L16.59-6.28L18.28-1.13ZM26.34-4.36L26.34-4.36L25.36-4.36L25.36-4.36Q25.41-6.47 27.94-6.47L27.94-6.47L27.94-6.47Q30.19-6.38 30.23-4.69L30.23-4.69L30.23-1.08L30.23-1.08Q30.23-0.70 30.61-0.70L30.61-0.70L30.61-0.70Q30.66-0.70 30.75-0.70L30.75-0.70L30.75-0.70Q30.89-0.75 30.98-0.75L30.98-0.75L30.98 0L30.98 0Q30.89 0 30.75 0L30.75 0L30.75 0Q30.52 0.05 30.38 0.05L30.38 0.05L30.38 0.05Q29.25 0.05 29.30-0.84L29.30-0.84L29.30-0.84Q28.36 0.09 27 0.09L27 0.09L27 0.09Q25.13 0 25.03-1.64L25.03-1.64L25.03-1.64Q25.08-3.33 26.95-3.61L26.95-3.61L28.69-3.80L28.69-3.80Q29.25-3.89 29.25-4.55L29.25-4.55L29.25-4.55Q29.25-5.58 27.75-5.58L27.75-5.58L27.75-5.58Q26.44-5.58 26.34-4.36ZM29.20-2.16L29.20-2.16L29.20-3.19L29.20-3.19Q28.83-2.95 27.47-2.77L27.47-2.77L27.47-2.77Q26.16-2.67 26.16-1.78L26.16-1.78L26.16-1.78Q26.16-0.70 27.23-0.70L27.23-0.70L27.23-0.70Q29.06-0.84 29.20-2.16ZM37.13-4.27L37.13-4.27L37.13 0L36.09 0L36.09-3.84L36.09-3.84Q36.19-5.58 34.73-5.48L34.73-5.48L34.73-5.48Q33.14-5.39 33.09-3.42L33.09-3.42L33.09 0L32.02 0L32.02-6.28L33.05-6.28L33.05-5.39L33.05-5.39Q33.80-6.47 34.97-6.47L34.97-6.47L34.97-6.47Q37.08-6.42 37.13-4.27ZM42.84-8.58L43.88-8.58L43.88 0L42.89 0L42.89-0.84L42.89-0.84Q42.33 0.09 41.11 0.09L41.11 0.09L41.11 0.09Q38.48 0 38.34-3.33L38.34-3.33L38.34-3.33Q38.48-6.33 40.97-6.47L40.97-6.47L40.97-6.47Q41.95-6.47 42.75-5.53L42.75-5.53L42.75-5.53Q42.80-5.44 42.84-5.39L42.84-5.39L42.84-5.44L42.84-8.58ZM39.42-3.14L39.42-3.14L39.42-3.14Q39.52-0.80 41.11-0.70L41.11-0.70L41.11-0.70Q42.80-0.89 42.84-2.81L42.84-2.81L42.84-2.81Q42.84-5.48 41.16-5.48L41.16-5.48L41.16-5.48Q39.38-5.48 39.42-3.14ZM53.77-4.27L53.77-4.27L53.77 0L52.73 0L52.73-3.84L52.73-3.84Q52.83-5.58 51.38-5.48L51.38-5.48L51.38-5.48Q49.78-5.39 49.73-3.42L49.73-3.42L49.73 0L48.66 0L48.66-6.28L49.69-6.28L49.69-5.39L49.69-5.39Q50.44-6.47 51.61-6.47L51.61-6.47L51.61-6.47Q53.72-6.42 53.77-4.27ZM55.36-6.28L56.44-6.28L56.44 0L55.36 0L55.36-6.28ZM56.44-8.58L56.44-7.41L55.36-7.41L55.36-8.58L56.44-8.58ZM58.78-3.14L58.78-3.14L58.78-3.14Q58.83-0.75 60.47-0.70L60.47-0.70L60.47-0.70Q62.11-0.84 62.16-2.81L62.16-2.81L62.16-2.81Q62.20-5.48 60.47-5.48L60.47-5.48L60.47-5.48Q58.73-5.48 58.78-3.14ZM62.16-6.28L63.14-6.28L63.14-0.52L63.14-0.52Q63.23 2.53 60.28 2.53L60.28 2.53L60.28 2.53Q58.08 2.53 57.84 0.66L57.84 0.66L58.92 0.66L58.92 0.66Q59.11 1.69 60.33 1.69L60.33 1.69L60.33 1.69Q62.20 1.69 62.11-0.42L62.11-0.42L62.11-0.70L62.11-0.66L62.11-0.66Q61.55 0.09 60.42 0.09L60.42 0.09L60.42 0.09Q57.80 0 57.66-3.33L57.66-3.33L57.66-3.33Q57.80-6.33 60.28-6.47L60.28-6.47L60.28-6.47Q61.45-6.47 62.16-5.39L62.16-5.39L62.16-6.28ZM69.70-4.27L69.70-4.27L69.70 0L68.67 0L68.67-4.08L68.67-4.08Q68.72-5.53 67.41-5.48L67.41-5.48L67.41-5.48Q65.72-5.44 65.67-3.42L65.67-3.42L65.67 0L64.59 0L64.59-8.58L65.67-8.58L65.67-5.44L65.72-5.44L65.72-5.44Q66.47-6.47 67.55-6.47L67.55-6.47L67.55-6.47Q69.66-6.42 69.70-4.27ZM73.59-6.28L73.59-5.39L72.56-5.39L72.56-1.31L72.56-1.31Q72.56-0.80 73.17-0.80L73.17-0.80L73.59-0.80L73.59 0L73.59 0Q73.31 0 72.94 0L72.94 0L72.94 0Q72.84 0 72.80 0L72.80 0L72.80 0Q71.44 0 71.48-1.22L71.48-1.22L71.48-5.39L70.69-5.39L70.69-6.28L71.48-6.28L71.48-8.02L72.56-8.02L72.56-6.28L73.59-6.28ZM79.13-3.66L79.13-3.66L79.13 0L78.05 0L78.05-6.28L79.08-6.28L79.08-5.20L79.08-5.20Q79.78-6.47 80.86-6.47L80.86-6.47L80.86-6.47Q80.95-6.47 81.05-6.42L81.05-6.42L81.05-6.42Q81.09-6.42 81.14-6.42L81.14-6.42L81.14-5.30L80.72-5.30L80.72-5.30Q79.22-5.20 79.13-3.66ZM86.16-1.97L86.16-1.97L87.19-1.97L87.19-1.97Q87-0.89 86.06-0.23L86.06-0.23L86.06-0.23Q85.55 0.09 84.38 0.09L84.38 0.09L84.38 0.09Q81.70 0 81.56-2.95L81.56-2.95L81.56-2.95Q81.66-6.38 84.56-6.47L84.56-6.47L84.56-6.47Q87.23-6.42 87.28-2.77L87.28-2.77L82.69-2.77L82.69-2.77Q82.69-0.70 84.52-0.70L84.52-0.70L84.52-0.70Q85.83-0.80 86.16-1.97ZM82.69-3.61L82.69-3.61L86.20-3.61L86.20-3.61Q86.06-5.48 84.42-5.48L84.42-5.48L84.42-5.48Q82.88-5.34 82.69-3.61ZM89.48-4.36L89.48-4.36L88.50-4.36L88.50-4.36Q88.55-6.47 91.08-6.47L91.08-6.47L91.08-6.47Q93.33-6.38 93.38-4.69L93.38-4.69L93.38-1.08L93.38-1.08Q93.38-0.70 93.75-0.70L93.75-0.70L93.75-0.70Q93.80-0.70 93.89-0.70L93.89-0.70L93.89-0.70Q94.03-0.75 94.13-0.75L94.13-0.75L94.13 0L94.13 0Q94.03 0 93.89 0L93.89 0L93.89 0Q93.66 0.05 93.52 0.05L93.52 0.05L93.52 0.05Q92.39 0.05 92.44-0.84L92.44-0.84L92.44-0.84Q91.50 0.09 90.14 0.09L90.14 0.09L90.14 0.09Q88.27 0 88.17-1.64L88.17-1.64L88.17-1.64Q88.22-3.33 90.09-3.61L90.09-3.61L91.83-3.80L91.83-3.80Q92.39-3.89 92.39-4.55L92.39-4.55L92.39-4.55Q92.39-5.58 90.89-5.58L90.89-5.58L90.89-5.58Q89.58-5.58 89.48-4.36ZM92.34-2.16L92.34-2.16L92.34-3.19L92.34-3.19Q91.97-2.95 90.61-2.77L90.61-2.77L90.61-2.77Q89.30-2.67 89.30-1.78L89.30-1.78L89.30-1.78Q89.30-0.70 90.38-0.70L90.38-0.70L90.38-0.70Q92.20-0.84 92.34-2.16ZM99.33-8.58L100.36-8.58L100.36 0L99.38 0L99.38-0.84L99.38-0.84Q98.81 0.09 97.59 0.09L97.59 0.09L97.59 0.09Q94.97 0 94.83-3.33L94.83-3.33L94.83-3.33Q94.97-6.33 97.45-6.47L97.45-6.47L97.45-6.47Q98.44-6.47 99.23-5.53L99.23-5.53L99.23-5.53Q99.28-5.44 99.33-5.39L99.33-5.39L99.33-5.44L99.33-8.58ZM95.91-3.14L95.91-3.14L95.91-3.14Q96-0.80 97.59-0.70L97.59-0.70L97.59-0.70Q99.28-0.89 99.33-2.81L99.33-2.81L99.33-2.81Q99.33-5.48 97.64-5.48L97.64-5.48L97.64-5.48Q95.86-5.48 95.91-3.14ZM101.86-6.28L102.94-6.28L102.94 0L101.86 0L101.86-6.28ZM102.94-8.58L102.94-7.41L101.86-7.41L101.86-8.58L102.94-8.58ZM109.55-4.27L109.55-4.27L109.55 0L108.52 0L108.52-3.84L108.52-3.84Q108.61-5.58 107.16-5.48L107.16-5.48L107.16-5.48Q105.56-5.39 105.52-3.42L105.52-3.42L105.52 0L104.44 0L104.44-6.28L105.47-6.28L105.47-5.39L105.47-5.39Q106.22-6.47 107.39-6.47L107.39-6.47L107.39-6.47Q109.50-6.42 109.55-4.27ZM111.94-3.14L111.94-3.14L111.94-3.14Q111.98-0.75 113.63-0.70L113.63-0.70L113.63-0.70Q115.27-0.84 115.31-2.81L115.31-2.81L115.31-2.81Q115.36-5.48 113.63-5.48L113.63-5.48L113.63-5.48Q111.89-5.48 111.94-3.14ZM115.31-6.28L116.30-6.28L116.30-0.52L116.30-0.52Q116.39 2.53 113.44 2.53L113.44 2.53L113.44 2.53Q111.23 2.53 111 0.66L111 0.66L112.08 0.66L112.08 0.66Q112.27 1.69 113.48 1.69L113.48 1.69L113.48 1.69Q115.36 1.69 115.27-0.42L115.27-0.42L115.27-0.70L115.27-0.66L115.27-0.66Q114.70 0.09 113.58 0.09L113.58 0.09L113.58 0.09Q110.95 0 110.81-3.33L110.81-3.33L110.81-3.33Q110.95-6.33 113.44-6.47L113.44-6.47L113.44-6.47Q114.61-6.47 115.31-5.39L115.31-5.39L115.31-6.28Z"></path></g></g></g></g></g></g></svg>